<?xml version="1.0" encoding="UTF-8" standalone="no"?>
<!-- Created with Inkscape (http://www.inkscape.org/) -->

<svg
   width="1920"
   height="1080"
   viewBox="0 0 508 285.75"
   version="1.1"
   id="svg5"
   inkscape:version="1.1 (c68e22c387, 2021-05-23)"
   sodipodi:docname="MainChar.svg"
   xmlns:inkscape="http://www.inkscape.org/namespaces/inkscape"
   xmlns:sodipodi="http://sodipodi.sourceforge.net/DTD/sodipodi-0.dtd"
   xmlns="http://www.w3.org/2000/svg"
   xmlns:svg="http://www.w3.org/2000/svg">
  <sodipodi:namedview
     id="namedview7"
     pagecolor="#505050"
     bordercolor="#eeeeee"
     borderopacity="1"
     inkscape:pageshadow="0"
     inkscape:pageopacity="0"
     inkscape:pagecheckerboard="0"
     inkscape:document-units="px"
     showgrid="false"
     inkscape:zoom="2.64375"
     inkscape:cx="672.71868"
     inkscape:cy="303.92435"
     inkscape:window-width="1920"
     inkscape:window-height="1001"
     inkscape:window-x="-9"
     inkscape:window-y="-9"
     inkscape:window-maximized="1"
     inkscape:current-layer="layer1" />
  <defs
     id="defs2" />
  <g
     inkscape:label="Layer 1"
     inkscape:groupmode="layer"
     id="layer1">
    <ellipse
       style="fill:#ff6347;stroke-width:0.130934"
       id="path31"
       cx="167.87383"
       cy="61.079697"
       rx="4.3582897"
       ry="3.9620814" />
    <ellipse
       style="fill:#000000;stroke-width:0.130934"
       id="path104"
       ry="1.1390985"
       rx="3.0210872"
       cy="62.887394"
       cx="167.6757" />
    <g
       id="g303"
       transform="matrix(0.49487025,0,0,0.49487025,84.2739,34.13754)">
      <ellipse
         style="fill:#000000;stroke-width:0.264583"
         id="path171"
         cx="171.6852"
         cy="50.239555"
         rx="0.70055163"
         ry="0.5504334" />
    </g>
    <ellipse
       style="fill:#000000;stroke-width:0.130934"
       id="path173"
       cx="166.51186"
       cy="58.838646"
       rx="0.29715613"
       ry="0.23524861" />
    <ellipse
       style="fill:#000000;stroke-width:0.130934"
       id="path175"
       cx="167.63858"
       cy="60.26252"
       rx="0.35906363"
       ry="0.24763009" />
    <path
       style="fill:#000000;stroke-width:0.130934"
       id="path210"
       d="m 166.60952,65.817011 c 0.0157,0.313437 0.0178,0.627356 0.0174,0.94112 -0.0144,0.204405 0.0152,0.413608 -0.0185,0.616833 -0.0124,0.07476 -0.0359,0.147279 -0.0517,0.221405 -0.0606,0.241685 -0.0662,0.491372 -0.0717,0.739118 -0.0176,0.23929 0.0332,0.475842 0.10217,0.703593 0.0522,0.208875 0.13947,0.40655 0.2187,0.606084 0.0697,0.125099 0.12446,0.251881 0.14502,0.393756 -0.003,0.152218 0.0605,0.290028 0.0992,0.434451 0.037,0.146147 0.0455,0.296738 0.0499,0.446746 -0.001,0.146542 0.0112,0.293979 -0.008,0.439418 -0.003,0.03587 -10e-4,0.07246 -0.009,0.107602 -0.009,0.03985 -0.0268,0.07713 -0.0404,0.115635 -0.0581,0.165043 -0.11384,0.325042 -0.19547,0.480137 -0.0562,0.08631 -0.0777,0.188032 -0.11693,0.281257 -0.0284,0.06735 -0.0624,0.125091 -0.0847,0.195713 -0.0753,0.06517 -0.0908,0.161849 -0.12974,0.246932 -0.0172,0.03768 -0.0422,0.07151 -0.0595,0.109162 -0.041,0.04973 -0.047,0.114458 -0.0979,0.157025 -0.0139,0.01164 -0.033,0.0159 -0.0471,0.02735 -0.10893,0.08863 0.0324,0.0018 -0.084,0.06816 -0.11178,0.0502 -0.004,-0.0048 -0.10958,0.07215 -0.10262,0.07516 -0.1217,0.08664 -0.16928,0.210165 -0.0579,0.171223 0.004,0.3367 0.0476,0.502661 0.0424,0.141172 0.0368,0.289768 0.0666,0.432682 0.0292,0.164966 0.0999,0.314977 0.19023,0.454513 0.0967,0.133279 0.21107,0.248821 0.3358,0.355429 0.13879,0.116471 0.30454,0.193586 0.46668,0.271559 0.14681,0.06702 0.26848,0.169418 0.37958,0.284421 0.0761,0.09476 0.10887,0.211814 0.1508,0.323485 0.0417,0.142865 0.0821,0.286773 0.1119,0.432779 0.0295,0.163042 0.0334,0.328981 0.0357,0.494189 9.9e-4,0.150235 -3.9e-4,0.300471 -9.9e-4,0.450704 -1.2e-4,0.03248 0.005,0.09898 -0.0139,0.130854 -0.009,0.01558 -0.0293,0.0215 -0.0419,0.03444 -0.049,0.0502 -0.0811,0.09594 -0.13973,0.137091 -0.63181,0.277207 -0.081,0.03837 1.55087,-0.915793 0,0 -1.52639,1.226007 -1.52639,1.226007 v 0 c 1.75436,-1.018552 1.29052,-0.505662 1.78221,-1.061866 0.0998,-0.143937 0.14834,-0.258483 0.13248,-0.438729 -7e-5,-0.151267 -1.3e-4,-0.302567 -0.005,-0.453774 -0.007,-0.176095 -0.0145,-0.353106 -0.0524,-0.525822 -0.034,-0.15407 -0.0702,-0.308336 -0.12118,-0.457751 -0.0475,-0.139368 -0.0986,-0.277216 -0.19204,-0.393598 -0.12357,-0.131655 -0.2615,-0.251332 -0.41977,-0.339851 -0.14712,-0.07527 -0.3038,-0.133994 -0.43827,-0.23192 -0.11029,-0.09544 -0.21804,-0.190372 -0.30775,-0.30646 -0.0759,-0.118774 -0.12904,-0.247495 -0.14911,-0.388003 -0.0195,-0.149612 -0.0327,-0.300487 -0.0764,-0.445792 -0.0331,-0.128386 -0.0684,-0.250765 0.0285,-0.361611 0.0941,-0.08568 0.2128,-0.140112 0.30261,-0.230936 0.0239,-0.02996 0.0527,-0.05602 0.0747,-0.08742 0.0505,-0.07215 0.0754,-0.161813 0.12091,-0.236871 0.062,-0.12321 0.12331,-0.247415 0.18067,-0.372451 0.0657,-0.151177 0.11838,-0.307528 0.1924,-0.455207 0.10108,-0.246143 0.19452,-0.501881 0.22502,-0.767387 0.01,-0.155374 0.009,-0.310984 9.9e-4,-0.46648 -0.0103,-0.162788 -0.029,-0.325166 -0.0734,-0.482693 -0.0386,-0.13977 -0.0765,-0.277937 -0.0863,-0.423368 -0.0334,-0.151558 -0.0928,-0.291019 -0.17345,-0.423851 -0.0811,-0.191492 -0.16135,-0.384341 -0.20838,-0.587648 -0.0574,-0.210616 -0.1084,-0.421807 -0.0849,-0.642386 0.0139,-0.240469 0.0364,-0.479508 0.0914,-0.714675 0.0538,-0.285334 0.0379,-0.573337 0.0331,-0.86244 -3.9e-4,-0.319656 0.002,-0.639447 0.0173,-0.958795 0,0 -1.74469,0.888963 -1.74469,0.888963 z" />
    <path
       style="fill:#000000;stroke-width:0.130934"
       id="path212"
       d="m 164.80082,73.915791 c -0.20255,0.455414 -0.47737,0.871159 -0.7514,1.285413 -0.14504,0.192965 -0.25704,0.407888 -0.39776,0.603808 -0.0464,0.06462 -0.0988,0.124779 -0.14659,0.188376 -0.0239,0.02464 -0.0489,0.04829 -0.0718,0.0739 -0.0557,0.06224 -0.0542,0.07939 -0.12004,0.126436 -0.0716,0.05115 -0.0969,0.0558 -0.14837,0.132594 -0.12953,0.120639 -0.24741,0.247914 -0.40056,0.338921 -0.16727,0.126893 -0.33109,0.25796 -0.49714,0.386733 -0.15127,0.148746 -0.32539,0.279581 -0.50805,0.387768 0,0 1.81634,-0.711257 1.81634,-0.711257 v 0 c 0.16884,-0.127476 0.33455,-0.257408 0.49426,-0.396222 0.16812,-0.129064 0.33406,-0.260872 0.50678,-0.383794 0.13846,-0.119384 0.27078,-0.246915 0.39705,-0.379041 0.12806,-0.09324 0.2215,-0.219376 0.31475,-0.346516 0.18156,-0.252719 0.32818,-0.527836 0.50154,-0.786086 0.27438,-0.434484 0.53624,-0.876281 0.78731,-1.324674 0,0 -1.77628,0.803644 -1.77628,0.803644 z" />
    <path
       style="fill:#000000;stroke-width:0.130934"
       id="path218"
       d="m 167.6363,68.537352 c 0.66501,-0.118028 1.3405,-0.171822 2.01337,-0.22485 0.48719,-0.03648 0.9756,-0.05072 1.464,-0.05619 0.24298,2.62e-4 0.48594,-0.0015 0.72893,7.92e-4 0.18031,0.003 0.36063,0.0027 0.54096,0.0034 0.15944,0.0015 0.31887,7.91e-4 0.47831,3.93e-4 0.17698,6.43e-4 0.35397,-0.001 0.53095,-0.0012 0.11357,2.62e-4 0.22714,1.31e-4 0.34068,0.0029 0,0 1.56931,-1.168206 1.56931,-1.168206 v 0 c -0.10905,0.03041 -0.22055,0.01704 -0.33314,0.01966 -0.17597,-6.6e-5 -0.35192,-0.0018 -0.52789,-0.001 -0.15961,-3.92e-4 -0.31922,-0.001 -0.47883,1.32e-4 -0.18238,3.92e-4 -0.36476,-3.93e-4 -0.54714,0.0015 -0.2485,0.001 -0.49706,-0.0027 -0.74547,0.0059 -0.50925,0.01494 -1.01758,0.04873 -1.52551,0.08753 -0.65064,0.05211 -1.30038,0.118845 -1.95212,0.155228 0,0 -1.55641,1.174137 -1.55641,1.174137 z" />
    <path
       style="fill:#000000;stroke-width:0.130934"
       id="path220"
       d="m 167.5065,67.601687 c -0.43335,0.01567 -0.8684,-0.01168 -1.29987,-0.05182 -0.43557,-0.0469 -0.87065,-0.09571 -1.30424,-0.158436 -0.20429,-0.02204 -0.40441,-0.06203 -0.59788,-0.13095 -0.18761,-0.09231 -0.3767,-0.180697 -0.57103,-0.257983 -0.22744,-0.09842 -0.4626,-0.17542 -0.7042,-0.229852 -0.23924,-0.03741 -0.47883,-0.07219 -0.71811,-0.109837 -0.21595,-0.0294 -0.43148,-0.06075 -0.64855,-0.08105 -0.23303,-0.01923 -0.46659,-0.02563 -0.7003,-0.02499 -0.23077,1.31e-4 -0.46152,-0.0016 -0.69228,-0.0035 -0.10612,-9.4e-4 -0.21225,-0.0013 -0.31837,-0.0016 0,0 -1.58219,1.14966 -1.58219,1.14966 v 0 c 0.10793,-3.92e-4 0.21588,-0.001 0.32381,-0.0022 0.23322,-0.0023 0.46644,-0.005 0.69968,-0.0035 0.23014,0.0031 0.46046,0.0017 0.69035,0.01426 0.21415,0.0143 0.42533,0.04353 0.6366,0.07698 0.24086,0.02652 0.47903,0.07127 0.72044,0.09288 0.23276,0.04006 0.46155,0.109215 0.67771,0.204595 0.19035,0.07722 0.38155,0.152193 0.5613,0.25276 0.19866,0.109623 0.42533,0.149477 0.65006,0.167109 0.44471,0.04852 0.88917,0.09709 1.33427,0.142015 0.41841,0.04928 0.83847,0.0779 1.25866,0.10634 0,0 1.58414,-1.150947 1.58414,-1.150947 z" />
  </g>
</svg>
